Coordinates
version=1
nRows=4
nColumns=114
inDegrees=yes

Units are S.I. units (second, meters, Newtons, ...)
If the header above contains a line with 'inDegrees', this indicates whether rotational values are in degrees (yes) or radians (no).

endheader 
time	pelvis_tilt	pelvis_list	pelvis_rotation	pelvis_tx	pelvis_ty	pelvis_tz	hip_flexion_l	hip_adduction_l	hip_rotation_l	hip_flexion_r	hip_adduction_r	hip_rotation_r	knee_angle_l	knee_angle_r	ankle_angle_l	ankle_angle_r	subtalar_angle_l	subtalar_angle_r	mtp_angle_l	mtp_angle_r	lumbar_extension	lumbar_bending	lumbar_rotation	arm_flex_l	arm_add_l	arm_rot_l	arm_flex_r	arm_add_r	arm_rot_r	elbow_flex_l	elbow_flex_r	pro_sup_l	pro_sup_r	addbrev_l/activation	addlong_l/activation	addmagDist_l/activation	addmagIsch_l/activation	addmagMid_l/activation	addmagProx_l/activation	bflh_l/activation	bfsh_l/activation	edl_l/activation	ehl_l/activation	fdl_l/activation	fhl_l/activation	gaslat_l/activation	gasmed_l/activation	glmax1_l/activation	glmax2_l/activation	glmax3_l/activation	glmed1_l/activation	glmed2_l/activation	glmed3_l/activation	glmin1_l/activation	glmin2_l/activation	glmin3_l/activation	grac_l/activation	iliacus_l/activation	perbrev_l/activation	perlong_l/activation	piri_l/activation	psoas_l/activation	recfem_l/activation	sart_l/activation	semimem_l/activation	semiten_l/activation	soleus_l/activation	tfl_l/activation	tibant_l/activation	tibpost_l/activation	vasint_l/activation	vaslat_l/activation	vasmed_l/activation	addbrev_r/activation	addlong_r/activation	addmagDist_r/activation	addmagIsch_r/activation	addmagMid_r/activation	addmagProx_r/activation	bflh_r/activation	bfsh_r/activation	edl_r/activation	ehl_r/activation	fdl_r/activation	fhl_r/activation	gaslat_r/activation	gasmed_r/activation	glmax1_r/activation	glmax2_r/activation	glmax3_r/activation	glmed1_r/activation	glmed2_r/activation	glmed3_r/activation	glmin1_r/activation	glmin2_r/activation	glmin3_r/activation	grac_r/activation	iliacus_r/activation	perbrev_r/activation	perlong_r/activation	piri_r/activation	psoas_r/activation	recfem_r/activation	sart_r/activation	semimem_r/activation	semiten_r/activation	soleus_r/activation	tfl_r/activation	tibant_r/activation	tibpost_r/activation	vasint_r/activation	vaslat_r/activation	vasmed_r/activation	
          6.07000000	         -7.34679322	         17.78273817	         37.51053511	         -6.68098125	          1.11734350	          0.51784184	         -0.48037094	         11.07816562	        -20.60271086	         23.55799764	         -7.37468393	         11.28452917	         35.74708321	         61.37901918	         10.63718694	         20.69844898	        -29.84983064	         -7.29693979	          4.99999913	          4.99999934	        -13.67384507	        110.67952500	         -2.27538952	         42.67582517	         -5.49724501	         42.30805049	        -19.62846576	        -44.38198835	         44.46226442	         88.61293852	         35.57035064	         96.37883050	         54.05162114	          0.01509954	          0.01509955	          0.01510014	          0.13769323	          0.01509938	          0.01000024	          0.01000006	          0.01000030	          0.15903541	          0.14081403	          0.02971194	          0.01347240	          0.01000015	          0.01000008	          0.01000001	          0.15717364	          0.01000024	          0.27018546	          0.01000000	          0.01000000	          0.73981788	          0.01000012	          0.01000001	          0.01000062	          0.44760027	          0.01003732	          0.01001215	          0.01000000	          0.01000034	          0.02579505	          0.01000009	          0.03445217	          0.41902116	          0.01000124	          0.99999985	          0.12696941	          0.03927354	          0.02632576	          0.21805747	          0.02279989	          0.01162035	          0.12558879	          0.01000001	          0.01000001	          0.01000005	          0.01000061	          0.01000003	          0.99999987	          0.57447303	          0.55677578	          0.01000046	          0.01000019	          0.49316422	          0.02279903	          0.01000004	          0.01000001	          0.01000000	          0.49669686	          0.29212820	          0.21761342	          0.05197940	          0.76392304	          0.93189867	          0.03442600	          0.05197911	          0.19523458	          0.36767156	          0.99999993	          0.05649556	          0.04981297	          0.99999988	          0.04992336	          0.09148971	          0.01000002	          0.27012888	          0.89991500	          0.01000016	          0.01000000	          0.00999999	          0.01000000	
          6.09026316	        -11.52802942	         13.04664087	         36.58092272	         -6.56457620	          1.13866001	          0.49257710	          0.33005640	          4.98490752	        -14.16961251	         36.09331722	         -4.09038460	          4.91079882	         28.24611054	         66.02221321	         14.49575275	         21.54785030	        -19.13983198	        -10.76846471	          3.90830377	          4.05051498	        -13.18686214	        101.21750023	         -5.75673963	         44.74074932	         -5.07125644	         38.29166760	        -40.77191371	        -39.96103161	         -0.50026895	        102.24591583	         44.46977549	        101.05680652	         72.31798616	          0.01000016	          0.01000015	          0.01000057	          0.09119159	          0.01000011	          0.01000006	          0.03442361	          0.29368145	          0.10890795	          0.20143784	          0.09804309	          0.01000021	          0.01000016	          0.01000010	          0.05197977	          0.10409319	          0.01000008	          0.17893869	          0.08889657	          0.11832579	          0.48996718	          0.07864004	          0.34606552	          0.01000013	          0.29643707	          0.02279921	          0.01914044	          0.02219932	          0.01000024	          0.04132600	          0.21790331	          0.02281703	          0.27750966	          0.01000003	          0.66228069	          0.38672923	          0.02607532	          0.01743510	          0.14441527	          0.01509997	          0.01808966	          0.08317545	          0.01000038	          0.01000029	          0.01000068	          0.01060681	          0.23801628	          0.66228072	          0.38046270	          0.36874218	          0.01011414	          0.01008370	          0.32661315	          0.01509937	          0.14596498	          0.01760421	          0.01000043	          0.32895285	          0.19347117	          0.26374407	          0.03442510	          0.50593164	          0.61717860	          0.02279975	          0.03442483	          0.12930071	          0.26520916	          0.66339374	          0.03741598	          0.23317652	          0.66228083	          0.03306336	          0.06059197	          0.01284944	          0.17890134	          0.59599646	          0.01000729	          0.01000011	          0.01000004	          0.01000007	
          6.11052632	        -12.73267008	          7.80368315	         34.70420095	         -6.44742465	          1.15560675	          0.47574029	         -2.35459543	         -4.73992977	         -8.93762725	         45.76015075	          1.17477900	         -4.54931849	         18.37455216	         70.61264632	         18.73526011	         25.15685456	         -4.71149554	        -14.34767238	          3.02001266	          2.98960974	        -14.56935348	         94.92944796	         -9.69353146	         48.83168494	         -6.99921556	         37.53200942	        -54.37153601	        -39.60278901	        -23.50267232	        110.06036687	         59.95563769	        100.32962511	         84.21435598	          0.01000006	          0.01000003	          0.01000007	          0.06039444	          0.01000007	          0.01000075	          0.02279853	          0.19449968	          0.07212768	          0.35568503	          0.35692937	          0.14909098	          0.01000003	          0.01000001	          0.03442537	          0.06893894	          0.07443360	          0.11850767	          0.05887454	          0.07836498	          0.32449585	          0.05208192	          0.22919483	          0.01000079	          0.19632461	          0.01509950	          0.01267636	          0.99999932	          0.66042346	          0.15504219	          0.69048761	          0.01511128	          0.18378930	          0.01000000	          0.43861580	          0.31221796	          0.21673503	          0.01154706	          0.09564349	          0.01000052	          0.02235400	          0.05514106	          0.01000034	          0.01000033	          0.01000061	          0.01825057	          0.15763363	          0.43861581	          0.44324268	          0.37746759	          0.01000049	          0.01000012	          0.21630960	          0.01000003	          0.37773901	          0.34953010	          0.01000019	          0.74831444	          0.99994683	          0.94922533	          0.02279921	          0.67496855	          0.78578035	          0.01509987	          0.02279894	          0.36109371	          0.26979579	          0.87597412	          0.02477991	          0.60001951	          0.43861593	          0.02189724	          0.04012892	          0.01000000	          0.11850751	          0.42527914	          0.01000012	          0.11305432	          0.11850777	          0.07896848	
          6.13078947	        -13.55726740	          3.08455553	         32.74651332	         -6.33335712	          1.16748291	          0.46574432	         -5.95603157	        -15.21360822	         -5.89358291	         53.70419875	          5.08636082	        -13.96559287	          8.41657069	         73.19201301	         20.99386427	         25.95426939	          9.03851791	        -15.23542175	          2.19779176	          1.99985317	        -16.82594259	         88.83990806	        -11.74476568	         56.20712269	         -9.02605921	         42.16171331	        -63.72605554	        -41.78160495	        -31.01729454	        111.54257111	         78.93743560	         95.13006100	         88.80885353	          0.07159498	          0.31831362	          0.01000049	          0.03999810	          0.60196249	          0.99999990	          0.01509919	          0.12881344	          0.04776878	          0.23556339	          0.53535948	          0.31928428	          0.01000004	          0.01000003	          0.02279928	          0.04565694	          0.04929608	          0.07848536	          0.03899150	          0.05189964	          0.21490738	          0.03449292	          0.22958953	          0.99999951	          0.13002210	          0.01000021	          0.01000005	          0.66228036	          0.99999906	          0.10268158	          0.45729671	          0.01000792	          0.12172012	          0.01000003	          0.29048683	          0.20677595	          0.25973317	          0.07848507	          0.07848535	          0.07848528	          0.01480465	          0.03651888	          0.01000018	          0.01000041	          0.01000007	          0.01208709	          0.12483203	          0.29048685	          0.29355121	          0.24998968	          0.01011792	          0.01010983	          0.14325788	          0.01000009	          0.99999998	          0.99999999	          0.01515206	          0.49559429	          0.99999996	          0.99999995	          0.01509954	          0.69642873	          0.99999992	          0.01000039	          0.01509932	          0.23914575	          0.22696658	          0.99999998	          0.01641128	          0.40018920	          0.29048697	          0.01450214	          0.02657664	          0.13639739	          0.07848529	          0.28165418	          0.01000910	          0.17991110	          0.07848558	          0.05229960	
